<?xml version="1.0" encoding="utf-8"?>
<svg version="1.1" xmlns:xlink="http://www.w3.org/1999/xlink" width="12px" height="12px" viewBox="262 180  12 12" xmlns="http://www.w3.org/2000/svg">
  <path d="M 268 180  C 271.36 180  274 182.64  274 186  C 274 189.36  271.36 192  268 192  C 264.64 192  262 189.36  262 186  C 262 182.64  264.64 180  268 180  Z " fill-rule="nonzero" fill="#f0f0f0" stroke="none" />
  <path d="M 268 180.5  C 271.08 180.5  273.5 182.92  273.5 186  C 273.5 189.08  271.08 191.5  268 191.5  C 264.92 191.5  262.5 189.08  262.5 186  C 262.5 182.92  264.92 180.5  268 180.5  Z " stroke-width="1" stroke="#797979" fill="none" />
  <path d="M 268 189  C 266.32 189  265 187.68  265 186  C 265 184.32  266.32 183  268 183  C 269.68 183  271 184.32  271 186  C 271 187.68  269.68 189  268 189  " fill-rule="nonzero" fill="#797979" stroke="none" />
</svg>