<?xml version="1.0" encoding="utf-8"?>
<svg version="1.1" xmlns:xlink="http://www.w3.org/1999/xlink" width="12px" height="12px" viewBox="262 213  12 12" xmlns="http://www.w3.org/2000/svg">
  <path d="M 268 213  C 271.36 213  274 215.64  274 219  C 274 222.36  271.36 225  268 225  C 264.64 225  262 222.36  262 219  C 262 215.64  264.64 213  268 213  Z " fill-rule="nonzero" fill="#f0f0f0" stroke="none" />
  <path d="M 268 213.5  C 271.08 213.5  273.5 215.92  273.5 219  C 273.5 222.08  271.08 224.5  268 224.5  C 264.92 224.5  262.5 222.08  262.5 219  C 262.5 215.92  264.92 213.5  268 213.5  Z " stroke-width="1" stroke="#797979" fill="none" />
  <path d="M 268 222  C 266.32 222  265 220.68  265 219  C 265 217.32  266.32 216  268 216  C 269.68 216  271 217.32  271 219  C 271 220.68  269.68 222  268 222  " fill-rule="nonzero" fill="#797979" stroke="none" />
</svg>