<?xml version="1.0" encoding="utf-8"?>
<svg version="1.1" xmlns:xlink="http://www.w3.org/1999/xlink" width="12px" height="12px" viewBox="262 246  12 12" xmlns="http://www.w3.org/2000/svg">
  <path d="M 268 246  C 271.36 246  274 248.64  274 252  C 274 255.36  271.36 258  268 258  C 264.64 258  262 255.36  262 252  C 262 248.64  264.64 246  268 246  Z " fill-rule="nonzero" fill="#f0f0f0" stroke="none" />
  <path d="M 268 246.5  C 271.08 246.5  273.5 248.92  273.5 252  C 273.5 255.08  271.08 257.5  268 257.5  C 264.92 257.5  262.5 255.08  262.5 252  C 262.5 248.92  264.92 246.5  268 246.5  Z " stroke-width="1" stroke="#797979" fill="none" />
  <path d="M 268 255  C 266.32 255  265 253.68  265 252  C 265 250.32  266.32 249  268 249  C 269.68 249  271 250.32  271 252  C 271 253.68  269.68 255  268 255  " fill-rule="nonzero" fill="#797979" stroke="none" />
</svg>