<?xml version="1.0" encoding="utf-8"?>
<svg version="1.1" xmlns:xlink="http://www.w3.org/1999/xlink" width="12px" height="12px" viewBox="262 279  12 12" xmlns="http://www.w3.org/2000/svg">
  <path d="M 268 279  C 271.36 279  274 281.64  274 285  C 274 288.36  271.36 291  268 291  C 264.64 291  262 288.36  262 285  C 262 281.64  264.64 279  268 279  Z " fill-rule="nonzero" fill="#ffffff" stroke="none" />
  <path d="M 268 279.5  C 271.08 279.5  273.5 281.92  273.5 285  C 273.5 288.08  271.08 290.5  268 290.5  C 264.92 290.5  262.5 288.08  262.5 285  C 262.5 281.92  264.92 279.5  268 279.5  Z " stroke-width="1" stroke="#797979" fill="none" />
  <path d="M 268 288  C 266.32 288  265 286.68  265 285  C 265 283.32  266.32 282  268 282  C 269.68 282  271 283.32  271 285  C 271 286.68  269.68 288  268 288  " fill-rule="nonzero" fill="#797979" stroke="none" />
</svg>